<?xml version="1.0" encoding="UTF-8"?>
<svg xmlns="http://www.w3.org/2000/svg" xmlns:xlink="http://www.w3.org/1999/xlink" width="44pt" height="44pt" viewBox="0 0 44 44" version="1.1">
<g id="surface1">
<path style=" stroke:none;fill-rule:nonzero;fill:rgb(100%,100%,100%);fill-opacity:1;" d="M 37.351562 1.613281 C 37.328125 1.613281 37.308594 1.621094 37.285156 1.625 C 33.566406 2.976562 31.683594 3.59375 26.632812 4.601562 C 23.546875 5.207031 21.6875 5.40625 19.453125 4.847656 L 8.664062 2.289062 C 7.855469 2.050781 7.082031 1.871094 6.328125 1.734375 L 2.460938 6.003906 L 1.652344 6.949219 L 2.484375 9.914062 C 3.402344 13.1875 4.375 18.140625 4.601562 20.683594 C 4.808594 21.769531 4.730469 22.75 4.691406 23.761719 C 4.6875 25.960938 3.484375 30.871094 2.257812 33.675781 L 1.617188 35.148438 L 2.105469 35.90625 C 4.109375 39.058594 6.738281 42.71875 6.996094 42.71875 C 7.171875 42.71875 8.925781 42.34375 10.90625 41.878906 C 12.882812 41.414062 15.558594 40.886719 16.84375 40.710938 C 19.804688 40.300781 24.894531 40.304688 27.75 40.707031 C 33.292969 41.84375 37.457031 42.867188 37.457031 42.867188 C 39.671875 39.28125 43.890625 37.789062 42.0625 33.964844 C 41.054688 31.304688 39.59375 26.917969 39.515625 23.761719 L 39.507812 23.226562 C 39.582031 22.574219 39.574219 21.667969 39.597656 20.894531 C 39.808594 18.796875 40.445312 14.734375 40.59375 14.527344 C 42.382812 9.5625 42.921875 7.335938 39.753906 3.789062 C 38.242188 2.097656 37.6875 1.585938 37.351562 1.613281 Z M 6.660156 2.519531 C 6.902344 2.558594 9.121094 3.222656 11.15625 3.820312 C 15.792969 5.1875 19.761719 5.96875 22.023438 5.96875 C 24.875 5.96875 29.019531 5.121094 34.414062 3.425781 C 35.914062 2.957031 37.222656 2.574219 37.316406 2.574219 C 37.417969 2.574219 38.414062 3.589844 39.539062 4.832031 L 41.574219 7.085938 L 40.660156 10.617188 C 38.894531 17.398438 38.339844 21.988281 38.835938 25.621094 C 39.171875 28.066406 40.007812 31.257812 40.84375 33.28125 C 41.199219 34.15625 41.496094 34.949219 41.496094 35.039062 C 41.496094 35.207031 37.421875 41.417969 37.117188 41.714844 C 37.027344 41.804688 35.816406 41.589844 34.433594 41.242188 C 29.175781 39.925781 27.019531 39.648438 22.105469 39.648438 C 17.175781 39.648438 14.921875 39.941406 9.828125 41.238281 C 8.472656 41.585938 7.320312 41.871094 7.269531 41.871094 C 7.222656 41.871094 6.160156 40.363281 4.914062 38.523438 L 2.652344 35.179688 L 3.148438 33.902344 C 6.179688 26.164062 6.269531 21.113281 3.558594 10.621094 L 2.648438 7.09375 L 4.609375 4.835938 C 6.089844 3.132812 6.660156 2.519531 6.660156 2.519531 Z M 6.660156 2.519531 "/>
<path style=" stroke:none;fill-rule:nonzero;fill:rgb(100%,100%,100%);fill-opacity:1;" d="M 11.34375 9.316406 L 33.242188 9.316406 L 33.242188 12.164062 L 24.050781 12.164062 L 24.050781 34.265625 L 20.535156 34.265625 L 20.535156 12.164062 L 11.34375 12.164062 Z M 11.34375 9.316406 "/>
</g>
</svg>
